<?xml version="1.0" standalone="no"?><!DOCTYPE svg PUBLIC "-//W3C//DTD SVG 1.1//EN" "http://www.w3.org/Graphics/SVG/1.1/DTD/svg11.dtd"><svg t="1610366101126" class="icon" viewBox="0 0 1024 1024" version="1.1" xmlns="http://www.w3.org/2000/svg" p-id="4476" width="32" height="32" xmlns:xlink="http://www.w3.org/1999/xlink"><defs><style type="text/css"></style></defs><path d="M255.153418 429.959646h308.653836c24.338919 0 44.072556-19.331787 44.072556-43.174891s-19.733637-43.17589-44.072556-43.175891H255.153418c-24.338919 0-44.071556 19.331787-44.071557 43.175891s19.732637 43.174891 44.071557 43.174891z m0 215.306665h404.255166c24.338919 0 44.072556-19.331787 44.072556-43.17489s-19.733637-43.17589-44.072556-43.175891H255.153418c-24.338919 0-44.071556 19.331787-44.071557 43.175891s19.732637 43.174891 44.071557 43.17489z m515.801546 119.302487H255.153418c-24.338919 0-44.071556 19.331787-44.071557 43.17589s19.732637 43.174891 44.071557 43.174891h515.801546c24.338919 0 44.071556-19.331787 44.071556-43.174891s-19.732637-43.17589-44.071556-43.17589z m152.304173-526.009738L691.127749 12.540391A44.554376 44.554376 0 0 0 660.065339 0.00007H131.489558C107.153639 0.00007 87.418002 19.331857 87.418002 43.17596v937.650149c0 23.842104 19.735636 43.174891 44.071556 43.174891h760.703171c24.338919 0 44.072556-19.332787 44.072555-43.174891V269.189631a42.777039 42.777039 0 0 0-13.006147-30.630571z m-226.353544-98.645194l89.293683 86.94456h-89.293683v-86.94456zM175.560115 937.650218V86.348852h433.201366v183.685464c0 23.843104 19.732637 43.174891 44.071556 43.174891h195.290135V937.650218H175.560115z" fill="#75D8F0" p-id="4477"></path></svg>