<?xml version="1.0" standalone="no"?><!DOCTYPE svg PUBLIC "-//W3C//DTD SVG 1.1//EN" "http://www.w3.org/Graphics/SVG/1.1/DTD/svg11.dtd"><svg t="1607154962835" class="icon" viewBox="0 0 1024 1024" version="1.1" xmlns="http://www.w3.org/2000/svg" p-id="4568" width="64" height="64" xmlns:xlink="http://www.w3.org/1999/xlink"><defs><style type="text/css"></style></defs><path d="M963.99 546.15V451c-0.01-16.56-13.44-29.99-30-30-58.49-0.34-116.88 5-174.34 15.92a271.012 271.012 0 0 0-112.64-65.23c88.77-74.57 100.28-206.99 25.7-295.76S465.73-24.34 376.96 50.23s-100.28 206.99-25.7 295.76a210.77 210.77 0 0 0 25.7 25.7 270.904 270.904 0 0 0-112.64 65.23A904.834 904.834 0 0 0 89.98 421c-16.57 0-30 13.43-30 30v95.16C24.06 558.91 0.04 592.88 0 630.99v59.98c0.06 38.12 24.08 72.09 60.01 84.84v95.16c0 16.57 13.43 30 30 30a698.098 698.098 0 0 1 405.35 116.97c10.08 6.7 23.2 6.7 33.28 0a698.171 698.171 0 0 1 405.35-116.97c16.57 0 30-13.43 30-30v-95.16c35.93-12.74 59.96-46.71 60.01-84.84v-59.98c-0.05-38.12-24.08-72.09-60.01-84.84zM361.98 211c0-82.84 67.15-149.99 149.99-149.99S661.96 128.16 661.96 211c0 82.83-67.14 149.98-149.96 149.99-82.56-0.65-149.34-67.43-149.99-149.99h-0.03z m-272 510c-16.56-0.03-29.97-13.44-30-30v-59.98c-0.04-16.57 13.36-30.03 29.94-30.07 16.57-0.04 30.03 13.36 30.07 29.94V691c-0.02 16.56-13.44 29.99-30.01 30z m391.99 218.17a750.628 750.628 0 0 0-362.01-97.74v-65.59c35.93-12.74 59.96-46.71 60.01-84.84v-59.98c-0.05-38.12-24.08-72.09-60.01-84.84v-64.74a678.069 678.069 0 0 1 362.01 105.83v351.9zM512 535.25a713.385 713.385 0 0 0-174.54-80.23c34.1-22.18 73.89-34 114.56-34.05h119.99c40.67 0.05 80.45 11.87 114.53 34.05A713.385 713.385 0 0 0 512 535.25z m391.99 306.2a750.769 750.769 0 0 0-362.01 97.74V587.24a678.01 678.01 0 0 1 362.01-105.86v64.74c-35.92 12.75-59.94 46.72-59.98 84.84v59.98c0.05 38.11 24.06 72.08 59.98 84.84v65.67z m60-150.45c-0.04 16.57-13.5 29.97-30.07 29.94-16.52-0.04-29.9-13.42-29.94-29.94v-59.98c-0.04-16.57 13.36-30.03 29.94-30.07 16.57-0.04 30.03 13.36 30.07 29.94V691z" p-id="4569" fill="#707070"></path></svg>